<svg xmlns="http://www.w3.org/2000/svg" width="27.895" height="25.547" viewBox="0 0 27.895 25.547">
  <g id="Group_2" data-name="Group 2" transform="translate(-13.855 -11.385)">
    <g id="Group_1" data-name="Group 1" transform="translate(13.855 11.385)">
      <path id="Path_19" data-name="Path 19" d="M36.7,23.261c5.555,0,9.447,2.265,9.447,7.43v.142c0,3.963-2.477,5.98-5.627,6.794L47.635,48.56h-5.1L35.922,38.334H32.915V48.56H28.209v-25.3Zm4.811,7.678V30.8c0-2.9-1.8-3.892-4.811-3.892H32.915v8.068H36.7C39.85,34.973,41.513,33.628,41.513,30.939Z" transform="translate(-28.209 -23.261)" fill="#fff"/>
      <path id="Path_20" data-name="Path 20" d="M66.6,60.524a2.814,2.814,0,1,1,2.8,2.76A2.749,2.749,0,0,1,66.6,60.524Z" transform="translate(-44.334 -37.737)" fill="#00b3f3"/>
    </g>
  </g>
</svg>
