<?xml version="1.0" encoding="utf-8"?>
<!-- Generator: Adobe Illustrator 15.0.0, SVG Export Plug-In . SVG Version: 6.00 Build 0)  -->
<!DOCTYPE svg PUBLIC "-//W3C//DTD SVG 1.1//EN" "http://www.w3.org/Graphics/SVG/1.1/DTD/svg11.dtd">
<svg version="1.1" id="Layer_1" xmlns="http://www.w3.org/2000/svg" xmlns:xlink="http://www.w3.org/1999/xlink" x="0px" y="0px"
	 width="14.719px" height="17.461px" viewBox="7.14 6.622 14.719 17.461" enable-background="new 7.14 6.622 14.719 17.461"
	 xml:space="preserve">
<g>
	<g>
		<g>
			<defs>
				<rect id="SVGID_1_" x="7.14" y="6.622" width="14.719" height="17.461"/>
			</defs>
			<clipPath id="SVGID_2_">
				<use xlink:href="#SVGID_1_"  overflow="visible"/>
			</clipPath>
			<path clip-path="url(#SVGID_2_)" fill="#00509F" d="M21.523,7.259c-0.119-0.23-0.354-0.374-0.608-0.374H8.104
				c-0.267,0-0.506,0.146-0.624,0.382c-0.12,0.237-0.097,0.517,0.059,0.73l5.212,7.118v8.016c0,0.278,0.166,0.528,0.424,0.637
				c0.086,0.033,0.177,0.053,0.264,0.053c0.18,0,0.354-0.07,0.485-0.202l2.061-2.06c0.224-0.226,0.348-0.522,0.348-0.84v-5.635
				l5.139-7.113C21.619,7.761,21.641,7.489,21.523,7.259 M9.046,9.159h10.911l-4.025,5.573h-2.807L9.046,9.159z M15.607,21.186
				l-2.061,2.063c-0.043,0.045-0.111,0.059-0.17,0.031c-0.06-0.025-0.099-0.081-0.099-0.146v-7.869H15.8v5.457
				C15.801,20.893,15.73,21.063,15.607,21.186 M21.04,7.66l-0.702,0.971H8.657L7.964,7.685C7.927,7.633,7.922,7.564,7.95,7.506
				C7.978,7.45,8.038,7.414,8.103,7.414h12.811c0.059,0,0.111,0.032,0.141,0.083C21.077,7.552,21.075,7.614,21.04,7.66"/>
		</g>
	</g>
	<g>
		<g>
			<defs>
				<rect id="SVGID_3_" x="7.14" y="6.622" width="14.719" height="17.461"/>
			</defs>
			<clipPath id="SVGID_4_">
				<use xlink:href="#SVGID_3_"  overflow="visible"/>
			</clipPath>
			<path clip-path="url(#SVGID_4_)" fill="none" stroke="#00509F" stroke-width="0.326" stroke-miterlimit="10" d="M21.523,7.259
				c-0.119-0.23-0.354-0.374-0.608-0.374H8.104c-0.267,0-0.506,0.146-0.624,0.382c-0.12,0.237-0.097,0.517,0.059,0.73l5.212,7.118
				v8.016c0,0.278,0.166,0.528,0.424,0.637c0.086,0.033,0.177,0.053,0.264,0.053c0.18,0,0.354-0.07,0.485-0.202l2.061-2.06
				c0.224-0.226,0.348-0.522,0.348-0.84v-5.635l5.139-7.113C21.619,7.761,21.641,7.489,21.523,7.259z M9.046,9.159h10.911
				l-4.025,5.573h-2.807L9.046,9.159z M15.607,21.186l-2.061,2.063c-0.043,0.045-0.111,0.059-0.17,0.031
				c-0.06-0.025-0.099-0.081-0.099-0.146v-7.869H15.8v5.457C15.801,20.893,15.73,21.063,15.607,21.186z M21.04,7.66l-0.702,0.971
				H8.657L7.964,7.685C7.927,7.633,7.922,7.564,7.95,7.506C7.978,7.45,8.038,7.414,8.103,7.414h12.811
				c0.059,0,0.111,0.032,0.141,0.083C21.077,7.552,21.075,7.614,21.04,7.66z"/>
		</g>
	</g>
</g>
</svg>
