<?xml version="1.0" encoding="utf-8"?>
<!-- Generator: Adobe Illustrator 21.0.0, SVG Export Plug-In . SVG Version: 6.00 Build 0)  -->
<svg version="1.1" id="Layer_1" xmlns="http://www.w3.org/2000/svg" xmlns:xlink="http://www.w3.org/1999/xlink" x="0px" y="0px"
	 width="24px" height="24px" viewBox="0 0 24 24" style="enable-background:new 0 0 24 24;" xml:space="preserve">
<style type="text/css">
	.st0{fill:#00509F;}
</style>
<g id="save" transform="translate(-0.5)">
	<path id="Path_35" class="st0" d="M18.2,3.3H4V21h17.3V6.4L18.2,3.3z M16.6,4.1v5H8v-5C8,4.1,16.6,4.1,16.6,4.1z M7.2,20.3v-6.9
		h10.5v6.9H7.2z M20.6,20.3h-2.2v-7.6H6.5v7.6H4.7V4.1h2.5v5.8h10.1V4.1h0.6l2.7,2.7V20.3L20.6,20.3z"/>
	<path id="Path_36" class="st0" d="M8.7,15.2h2.5c0.2,0,0.4-0.1,0.4-0.3s-0.1-0.4-0.3-0.4h-0.1H8.7c-0.2,0-0.4,0.1-0.4,0.3
		C8.2,15,8.4,15.2,8.7,15.2C8.6,15.2,8.7,15.2,8.7,15.2z"/>
	<path id="Path_37" class="st0" d="M12.3,16H8.7c-0.2,0-0.3,0.2-0.3,0.4c0,0.2,0.1,0.3,0.3,0.3h3.6c0.2,0,0.3-0.2,0.3-0.4
		C12.6,16.1,12.5,16,12.3,16L12.3,16z"/>
	<path id="Path_38" class="st0" d="M13.1,16.1c-0.1,0.1-0.1,0.4,0,0.5s0.2,0.1,0.3,0.1c0.2,0,0.4-0.2,0.4-0.4S13.6,16,13.4,16
		C13.3,16,13.2,16,13.1,16.1z"/>
	<path id="Path_39" class="st0" d="M15.9,4.8h-2.2v3.6h2.2V4.8z M15.2,7.7h-0.7V5.5h0.7V7.7z"/>
</g>
</svg>
